# AST/ASF file generated using VICON BodyLanguage
# -----------------------------------------------
:version 1.10
:name VICON
:units
  mass 1.0
  length 0.45
  angle deg
:documentation
   .ast/.asf automatically generated from VICON data using
   VICON BodyBuilder and BodyLanguage model FoxedUp or BRILLIANT.MOD
:root
   order TX TY TZ RX RY RZ
   axis XYZ
   position 0 0 0  
   orientation 0 0 0 
:bonedata
  begin
     id 1 
     name lhipjoint
     direction 0.710087 -0.641647 0.289942 
     length 2.79038 
     axis 0 0 0  XYZ
  end
  begin
     id 2 
     name lfemur
     direction 0.34202 -0.939693 0  
     length 7.2706  
     axis 0 0 20  XYZ
    dof rx ry rz
    limits (-160.0 20.0)
           (-70.0 70.0)
           (-60.0 70.0)
  end
  begin
     id 3 
     name ltibia
     direction 0.34202 -0.939693 0   
     length 7.86328   
     axis 0 0 20   XYZ
    dof rx
    limits (-10.0 170.0)
  end
  begin
     id 4 
     name lfoot
     direction 0.0541246 -0.148706 0.987399   
     length 2.37542   
     axis -90 7.62852e-016 20   XYZ
    dof rx rz
    limits (-45.0 90.0)
           (-70.0 20.0)
  end
  begin
     id 5 
     name ltoes
     direction 1.53554e-011 -4.21866e-011 1   
     length 1.19593   
     axis -90 7.62852e-016 20   XYZ
    dof rx
    limits (-90.0 20.0)
  end
  begin
     id 6 
     name rhipjoint
     direction -0.675762 -0.671724 0.303533   
     length 2.66544  
     axis 0 0 0  XYZ 
  end
  begin
     id 7 
     name rfemur
     direction -0.34202 -0.939693 0   
     length 8.11844   
     axis 0 0 -20   XYZ
    dof rx ry rz
    limits (-160.0 20.0)
           (-70.0 70.0)
           (-70.0 60.0)
  end
  begin
     id 8 
     name rtibia
     direction -0.34202 -0.939693 0   
     length 7.97082   
     axis 0 0 -20   XYZ
    dof rx
    limits (-10.0 170.0)
 end
 begin
     id 9 
     name rfoot
     direction -0.0726228 -0.199474 0.977208   
     length 2.19677  
     axis -90 -7.62852e-016 -20   XYZ
    dof rx rz
    limits (-45.0 90.0)
           (-20.0 70.0)
  end
  begin
     id 10 
     name rtoes
     direction -1.53508e-011 -4.21913e-011 1   
     length 1.10438   
     axis -90 -7.62852e-016 -20   XYZ
    dof rx
    limits (-90.0 20.0)
  end
  begin
     id 11 
     name lowerback
     direction -0.00404436 0.999673 -0.0252643   
     length 2.03972   
     axis 0 0 0   XYZ
    dof rx ry rz
    limits (-20.0 45.0)
           (-30.0 30.0)
           (-30.0 30.0)
  end
  begin
     id 12 
     name upperback
     direction 0.00744643 0.999969 0.00242763   
     length 2.04273   
     axis 0 0 0   XYZ
    dof rx ry rz
    limits (-20.0 45.0)
           (-30.0 30.0)
           (-30.0 30.0)
  end
  begin
     id 13 
     name thorax
     direction 0.00846113 0.999862 0.0143204   
     length 2.03752   
     axis 0 0 0   XYZ
    dof rx ry rz
    limits (-20.0 45.0)
           (-30.0 30.0)
           (-30.0 30.0)
  end
  begin
     id 14 
     name lowerneck
     direction 0.0328213 0.990857 0.130862   
     length 1.37497   
     axis 0 0 0   XYZ
    dof rx ry rz
    limits (-20.0 45.0)
           (-30.0 30.0)
           (-30.0 30.0)
  end
  begin
     id 15 
     name upperneck
     direction -0.0302832 0.999496 0.00956452   
     length 1.35926   
     axis 0 0 0   XYZ
    dof rx ry rz
    limits (-20.0 45.0)
           (-30.0 30.0)
           (-30.0 30.0)
  end
  begin
     id 16
     name head
     direction -0.0130455 0.999856 -0.0108809  
     length 1.44454  
     axis 0 0 0   XYZ
    dof rx ry rz
    limits (-20.0 45.0)
           (-30.0 30.0)
           (-30.0 30.0)
  end
  begin
     id 17 
     name lclavicle
     direction 0.952957 0.278766 0.119006  
     length 3.10112  
     axis 0 0 0   XYZ
    dof ry rz
    limits (-20.0 10.0)
           (0.0 20.0)
  end
  begin
     id 18 
     name lhumerus
     direction 1 -4.48972e-011 -1.63238e-028   
     length 5.82845   
     axis -180 -30 -90   XYZ
    dof rx ry rz
    limits (-60.0 90.0)
           (-90.0 90.0)
           (-90.0 90.0)
  end
  begin
     id 19
     name lradius
     direction 1 -4.48959e-011 1.45401e-026   
     length 3.49691   
     axis -180 -30 -90   XYZ
    dof rx
    limits (-10.0 170.0)
  end
  begin
     id 20
     name lwrist
     direction 1 -4.48945e-011 2.98015e-026   
     length 1.74845   
     axis -1.7599e-014 90 90   XYZ
    dof ry
    limits (-180.0 0.0)
 end
  begin
     id 21 
     name lhand
     direction 1 -4.4902e-011 5.9603e-026   
     length 0.674998   
     axis -3.80318e-014 90 90   XYZ
    dof rx rz
    limits (-90.0 90.0)
           (-45.0 45.0)
  end
  begin
     id 22 
     name lfingers
     direction 1 -4.48979e-011 1.19206e-025   
     length 0.544201   
     axis -7.60636e-014 90 90   XYZ
    dof rx
    limits (0.0 90.0)
  end
  begin
     id 23
     name lthumb
     direction 0.707107 -6.34941e-011 0.707107   
     length 0.781367   
     axis -90 45 2.85299e-015   XYZ
    dof rx rz
    limits (-45.0 45.0)
           (-45.0 45.0)
  end
  begin
     id 24 
     name rclavicle
     direction -0.967632 0.241887 0.0719654   
     length 3.53012  
     axis 0 0 0   XYZ 
    dof ry rz
    limits (-10.0 20.0)
           (-20.0 0.0)
  end
  begin
     id 25 
     name rhumerus
     direction -1 -4.4897e-011 6.87619e-028  
     length 5.45859   
     axis -180 30 90   XYZ
    dof rx ry rz
    limits (-90.0 60.0)
           (-90.0 90.0)
           (-90.0 90.0)
  end
  begin
     id 26 
     name rradius
     direction -1 -4.48967e-011 1.68055e-026   
     length 3.58491   
     axis -180 30 90   XYZ
    dof rx
    limits (-10.0 170.0)
  end
  begin
     id 27 
     name rwrist
     direction -1 -4.48976e-011 2.98015e-026   
     length 1.79245   
     axis -1.7599e-014 -90 -90   XYZ
    dof ry
    limits (-180.0 0.0)
  end
  begin
     id 28
     name rhand
     direction -1 -4.48996e-011 5.9603e-026   
     length 0.683735   
     axis -3.80318e-014 -90 -90   XYZ
    dof rx rz
    limits (-90.0 90.0)
           (-45.0 45.0)
  end
  begin
     id 29
     name rfingers
     direction -1 -4.48924e-011 1.19206e-025   
     length 0.551245   
     axis -7.60636e-014 -90 -90   XYZ
    dof rx
    limits (0.0 90.0)
  end
  begin
     id 30
     name rthumb
     direction -0.707107 -6.3492e-011 0.707107   
     length 0.791481   
     axis -90 -45 -2.85299e-015   XYZ
    dof rx rz
    limits (-45.0 45.0)
           (-45.0 45.0)
  end
:hierarchy
  begin
    root lhipjoint rhipjoint lowerback
    lhipjoint lfemur
    lfemur ltibia
    ltibia lfoot
    lfoot ltoes
    rhipjoint rfemur
    rfemur rtibia
    rtibia rfoot
    rfoot rtoes
    lowerback upperback
    upperback thorax
    thorax lowerneck lclavicle rclavicle
    lowerneck upperneck
    upperneck head
    lclavicle lhumerus
    lhumerus lradius
    lradius lwrist
    lwrist lhand lthumb
    lhand lfingers
    rclavicle rhumerus
    rhumerus rradius
    rradius rwrist
    rwrist rhand rthumb
    rhand rfingers
  end

#!OML:ASF F:\VICON\USERDATA\INSTALL\rory3\rory3.ASF
:FULLY-SPECIFIED
:DEGREES
322
root -2.51152 19.4502 7.72887 -104.06 -100.591 96.8594
lowerback 6.70987 0.323271 6.48146
upperback -1.91667 0.59265 -6.12007
thorax -5.68628 -0.098174 -10.3379
lowerneck -14.3964 -7.07718 3.70221
upperneck -5.09595 -10.2499 -3.61023
head 0.39667 -5.3601 -2.2223
rclavicle -1.86858e-014 2.22639e-014
rhumerus 21.1113 -0.474338 60.2414
rradius 33.2912
rwrist -85.7961
rhand -31.1824 43.9415
rfingers 7.12502
rthumb -4.45923 14.0085
lclavicle -1.86858e-014 2.22639e-014
lhumerus -18.9941 -13.8038 37.0398
lradius 54.9273
lwrist 46.9068
lhand 149.275 -119.913
lfingers 7.12502
lthumb -184.018 -630.029
rfemur -6.06219 7.39173 27.5658
rtibia 37.0746
rfoot -6.62173 -15.2577
rtoes 30.3496
lfemur -3.80399 -8.23271 -0.13742
ltibia 37.6526
lfoot 25.4424 -4.82911
ltoes -5.65913
323
root -2.43833 19.4672 7.56944 -94.7127 -101.193 87.4998
lowerback 6.29097 0.581311 7.56739
upperback -1.69561 1.06053 -5.67818
thorax -5.09836 0.158055 -10.5173
lowerneck -14.3751 -6.47508 4.66125
upperneck -5.4365 -9.64236 -5.09392
head 0.195242 -5.10902 -2.84444
rclavicle 1.98785e-015 9.54166e-015
rhumerus 22.1696 -3.78059 58.435
rradius 33.3457
rwrist -82.1149
rhand -30.7197 44.7772
rfingers 7.12502
rthumb -4.01251 14.8353
lclavicle 1.98785e-015 9.54166e-015
lhumerus -19.4891 -12.8676 37.8576
lradius 54.4606
lwrist 46.4706
lhand 149.612 -119.876
lfingers 7.12502
lthumb -183.692 -630.072
rfemur -6.47759 7.42963 28.0245
rtibia 38.6461
rfoot -1.47446 -17.3236
rtoes 13.7067
lfemur -3.56716 -8.44391 -0.99686
ltibia 38.3305
lfoot 25.3605 -3.67882
ltoes -3.44391
324
root -2.37312 19.4746 7.40314 -88.0852 -102.152 81.0567
lowerback 5.58483 0.688711 8.69701
upperback -1.51221 1.30067 -5.05992
thorax -4.43849 0.311948 -10.4882
lowerneck -14.1041 -5.92984 5.19581
upperneck -5.79228 -9.04055 -6.30011
head -0.00947429 -4.84287 -3.30679
rclavicle -1.39149e-014 1.59028e-014
rhumerus 23.8229 -8.3004 55.212
rradius 33.4321
rwrist -76.329
rhand -28.4299 44.8531
rfingers 7.12502
rthumb -1.8011 14.8809
lclavicle -1.39149e-014 1.59028e-014
lhumerus -20.2526 -11.9768 39.0324
lradius 54.1557
lwrist 46.2815
lhand 150.23 -119.533
lfingers 7.12502
lthumb -183.095 -630.424
rfemur -6.95446 8.28014 28.5475
rtibia 39.9428
rfoot 0.373912 -18.6535
rtoes 4.44869
lfemur -3.43719 -8.2558 -1.45434
ltibia 38.685
lfoot 23.6085 -0.532573
ltoes -7.14524
325
root -2.31578 19.4548 7.23944 -84.8838 -102.971 77.8491
lowerback 5.06525 0.674444 9.90715
upperback -1.3958 1.35092 -4.73003
thorax -3.99536 0.348292 -10.8232
lowerneck -13.6669 -5.62076 5.04603
upperneck -5.72516 -8.57744 -6.24151
head -0.0203053 -4.59824 -3.22793
rclavicle -2.78299e-015 -5.40694e-014
rhumerus 25.9726 -12.5248 50.8712
rradius 33.3594
rwrist -69.5754
rhand -24.0893 47.4696
rfingers 7.12502
rthumb 2.39109 17.5033
lclavicle -2.78299e-015 -5.40694e-014
lhumerus -20.769 -12.0582 39.9243
lradius 53.9268
lwrist 46.5655
lhand 149.831 -118.829
lfingers 7.12502
lthumb -183.481 -631.122
rfemur -7.03817 9.00891 28.8994
rtibia 40.7606
rfoot -0.818546 -20.0224
rtoes 6.95207
lfemur -2.99836 -6.84958 -1.48399
ltibia 38.8523
lfoot 22.3876 2.41159
ltoes -12.8693
326
root -2.26653 19.3899 7.06838 -82.8237 -103.233 75.7478
lowerback 4.7615 0.727535 9.88663
upperback -1.51227 1.42127 -4.27548
thorax -3.9389 0.39232 -10.2995
lowerneck -13.2603 -5.29212 5.35466
upperneck -5.44846 -8.14845 -6.90961
head -0.0091197 -4.38742 -3.49219
rclavicle -3.97569e-016 3.18055e-015
rhumerus 28.3367 -15.5111 47.2431
rradius 33.378
rwrist -63.9829
rhand -23.2037 46.4422
rfingers 7.12502
rthumb 3.24636 16.4872
lclavicle -3.97569e-016 3.18055e-015
lhumerus -21.3735 -12.492 41.3653
lradius 53.491
lwrist 46.6086
lhand 150.401 -119.332
lfingers 7.12502
lthumb -182.93 -630.628
rfemur -6.91975 9.7666 28.7899
rtibia 41.1465
rfoot -2.72558 -21.2504
rtoes 17.4566
lfemur -2.20788 -4.38966 -1.50534
ltibia 38.7472
lfoot 21.398 0.666329
ltoes -30.2942
327
root -2.21462 19.2578 6.88736 -83.4576 -103.41 75.968
lowerback 4.71083 0.570733 9.7731
upperback -1.31791 1.20813 -4.02433
thorax -3.76245 0.313769 -9.932
lowerneck -12.9502 -4.92693 6.5442
upperneck -5.64552 -7.83961 -7.78491
head -0.186246 -4.2627 -3.99718
rclavicle 7.95139e-015 4.77083e-014
rhumerus 29.4148 -16.0206 45.9552
rradius 33.5559
rwrist -62.1338
rhand -21.9234 46.1545
rfingers 7.12502
rthumb 4.48278 16.2219
lclavicle 7.95139e-015 4.77083e-014
lhumerus -21.4697 -12.5243 42.6137
lradius 53.006
lwrist 45.8203
lhand 151.494 -119.11
lfingers 7.12502
lthumb -181.874 -630.862
rfemur -6.37447 10.0569 28.7972
rtibia 41.2113
rfoot -2.8083 -21.6968
rtoes 4.17791
lfemur -1.17741 -1.00305 -0.82638
ltibia 38.6103
lfoot 16.181 -11.9106
ltoes -51.5459
328
root -2.18198 19.1281 6.70673 -85.7851 -103.103 77.6283
lowerback 5.0296 0.393299 9.13467
upperback -1.15131 0.961715 -3.83388
thorax -3.83472 0.211859 -9.33292
lowerneck -12.149 -4.8509 6.77866
upperneck -6.05626 -7.75475 -7.99171
head -0.470326 -4.21037 -4.06929
rclavicle -1.19271e-014 5.40694e-014
rhumerus 30.7977 -17.0287 43.7273
rradius 33.5566
rwrist -59.1117
rhand -21.0644 46.1501
rfingers 7.12502
rthumb 5.31215 16.2367
lclavicle -1.19271e-014 5.40694e-014
lhumerus -21.1894 -12.8374 44.2473
lradius 52.1935
lwrist 44.3362
lhand 152.463 -119.709
lfingers 7.12502
lthumb -180.939 -630.269
rfemur -5.43469 10.4908 28.436
rtibia 41.1022
rfoot 0.413631 -19.3462
rtoes 3.11741
lfemur -0.370316 -0.713556 -0.527611
ltibia 38.5693
lfoot 17.2889 -6.96719
ltoes -50.3444
329
root -2.14534 18.9597 6.52586 -89.207 -102.369 80.3818
lowerback 5.38869 0.123488 8.12028
upperback -0.866242 0.552417 -3.8297
thorax -3.83307 0.0413211 -8.70342
lowerneck -11.5885 -4.7624 7.06133
upperneck -6.69444 -7.69536 -8.13095
head -0.790502 -4.18089 -4.13649
rclavicle 1.31198e-014 -9.54166e-015
rhumerus 31.9472 -18.0845 41.2949
rradius 33.4996
rwrist -56.1233
rhand -20.6787 45.6402
rfingers 7.12502
rthumb 5.68456 15.7364
lclavicle 1.31198e-014 -9.54166e-015
lhumerus -20.3768 -12.8473 45.6592
lradius 51.2245
lwrist 42.9195
lhand 153.597 -119.919
lfingers 7.12502
lthumb -179.843 -630.061
rfemur -4.41627 10.8482 27.6156
rtibia 41.118
rfoot 2.5512 -14.9859
rtoes -12.5479
lfemur 0.187832 -0.559178 -0.622713
ltibia 38.956
lfoot 14.3946 -6.34696
ltoes -51.7589
330
root -2.0993 18.7438 6.36106 -92.3691 -101.829 83.2557
lowerback 5.39777 -0.0762243 7.37074
upperback -0.576691 0.226684 -3.86454
thorax -3.6004 -0.0846608 -8.27112
lowerneck -11.3972 -4.59831 7.56923
upperneck -7.49963 -7.63871 -8.76082
head -1.01289 -4.16165 -4.02156
rclavicle 3.97569e-015 -2.54444e-014
rhumerus 33.0216 -19.6175 38.2517
rradius 33.2338
rwrist -52.7421
rhand -20.5356 45.7014
rfingers 7.12502
rthumb 5.82268 15.8014
lclavicle 3.97569e-015 -2.54444e-014
lhumerus -19.184 -13.2649 46.8313
lradius 50.4892
lwrist 42.3216
lhand 153.907 -120.375
lfingers 7.12502
lthumb -179.544 -450.396
rfemur -3.67583 10.4324 26.9775
rtibia 41.3691
rfoot 4.11296 -8.43704
rtoes -36.7045
lfemur 0.322735 -1.36757 -0.92226
ltibia 39.8056
lfoot 11.4754 -1.54192
ltoes -50.0551
331
root -2.03902 18.4901 6.19799 -95.5758 -102.004 86.688
lowerback 5.12288 -0.262246 7.54273
upperback -0.373772 -0.03384 -3.92733
thorax -3.2841 -0.196725 -8.41297
lowerneck -11.2562 -4.57012 7.88147
upperneck -8.50413 -7.73262 -8.77803
head -1.35187 -4.22424 -4.05928
rclavicle 5.1684e-015 -2.22639e-014
rhumerus 33.3662 -20.6022 35.5851
rradius 33.1442
rwrist -50.132
rhand -21.0877 46.177
rfingers 7.12502
rthumb 5.28968 16.263
lclavicle 5.1684e-015 -2.22639e-014
lhumerus -17.652 -13.9931 47.5524
lradius 50.146
lwrist 42.6202
lhand 153.412 -120.255
lfingers 7.12502
lthumb -180.022 -450.275
rfemur -3.6336 9.9505 27.2582
rtibia 42.0034
rfoot -1.53982 -6.2722
rtoes -21.2794
lfemur -0.345745 -1.96278 -0.35223
ltibia 41.1037
lfoot 6.93323 1.86349
ltoes -48.6174
332
root -1.97737 18.2404 6.03136 -98.3311 -102.541 89.6646
lowerback 5.18347 -0.422718 7.87415
upperback -0.25256 -0.218251 -3.79951
thorax -3.2297 -0.285239 -8.45283
lowerneck -11.5799 -4.36929 8.41564
upperneck -9.04337 -7.64628 -9.34958
head -1.48908 -4.21549 -4.3258
rclavicle 7.95139e-016 -1.90833e-014
rhumerus 34.0881 -22.2641 32.1439
rradius 32.9865
rwrist -46.7228
rhand -20.6547 46.3861
rfingers 7.12502
rthumb 5.70777 16.483
lclavicle 7.95139e-016 -1.90833e-014
lhumerus -16.5619 -15.0462 48.2317
lradius 50.3555
lwrist 43.3065
lhand 152.933 -119.82
lfingers 7.12502
lthumb -180.485 -630.16
rfemur -3.86556 9.54629 28.1579
rtibia 42.946
rfoot -5.60604 -3.48404
rtoes -21.3855
lfemur -1.20074 -3.19052 0.453743
ltibia 42.503
lfoot 2.82458 4.34344
ltoes -48.8417
